G04 Layer: TopSolderMaskLayer*
G04 EasyEDA v6.4.21, 2021-08-27T17:56:30+02:00*
G04 e7cb7ce6d9f94255a7045453de3fad17,10*
G04 Gerber Generator version 0.2*
G04 Scale: 100 percent, Rotated: No, Reflected: No *
G04 Dimensions in millimeters *
G04 leading zeros omitted , absolute positions ,4 integer and 5 decimal *
%FSLAX45Y45*%
%MOMM*%

%ADD19C,1.9032*%
%ADD22C,2.0032*%

%LPD*%
D19*
G01*
X5875807Y5664192D03*
G01*
X6225793Y5664192D03*
G01*
X6575806Y5664192D03*
G01*
X6925792Y5664192D03*
G36*
X4872227Y5721350D02*
G01*
X4872227Y5886450D01*
X5008372Y5886450D01*
X5008372Y5721350D01*
G37*
G36*
X5075427Y5721350D02*
G01*
X5075427Y5886450D01*
X5211572Y5886450D01*
X5211572Y5721350D01*
G37*
G36*
X4983988Y6518655D02*
G01*
X4983988Y6663944D01*
X5074411Y6663944D01*
X5074411Y6518655D01*
G37*
G36*
X5078984Y6268720D02*
G01*
X5078984Y6414007D01*
X5169408Y6414007D01*
X5169408Y6268720D01*
G37*
G36*
X4888991Y6268720D02*
G01*
X4888991Y6414007D01*
X4979415Y6414007D01*
X4979415Y6268720D01*
G37*
D22*
G01*
X3619500Y7416805D03*
G01*
X3365500Y7416805D03*
G01*
X3111500Y7416805D03*
G01*
X2857500Y7416805D03*
G01*
X2603500Y7416805D03*
G01*
X2349500Y7416805D03*
G01*
X2095500Y7416805D03*
G01*
X1841500Y7416805D03*
G01*
X3619500Y5130805D03*
G01*
X3365500Y5130805D03*
G01*
X3111500Y5130805D03*
G01*
X2857500Y5130805D03*
G01*
X2603500Y5130805D03*
G01*
X2349500Y5130805D03*
G01*
X2095500Y5130805D03*
G01*
X1841500Y5130805D03*
M02*
