M48
METRIC,LZ,000.000
;FILE_FORMAT=3:3
;TYPE=PLATED
;Layer: Drill PTH
;EasyEDA v6.4.21, 2021-08-27T17:56:30+02:00
;e7cb7ce6d9f94255a7045453de3fad17,10
;Gerber Generator version 0.2
;Holesize 1 = 1.101 mm
T01C1.101
;Holesize 2 = 1.200 mm
T02C1.200
%
G05
G90
T01
X058758Y056642
X062258Y056642
X065758Y056642
X069258Y056642
T02
X036195Y074168
X033655Y074168
X031115Y074168
X028575Y074168
X026035Y074168
X023495Y074168
X020955Y074168
X018415Y074168
X036195Y051308
X033655Y051308
X031115Y051308
X028575Y051308
X026035Y051308
X023495Y051308
X020955Y051308
X018415Y051308
M30
