G04 Layer: TopSilkLayer*
G04 EasyEDA v6.4.21, 2021-08-27T17:56:30+02:00*
G04 e7cb7ce6d9f94255a7045453de3fad17,10*
G04 Gerber Generator version 0.2*
G04 Scale: 100 percent, Rotated: No, Reflected: No *
G04 Dimensions in millimeters *
G04 leading zeros omitted , absolute positions ,4 integer and 5 decimal *
%FSLAX45Y45*%
%MOMM*%

%ADD10C,0.2540*%
%ADD11C,0.2032*%
%ADD16C,0.1999*%
%ADD17C,0.2000*%
%ADD18C,0.1524*%

%LPD*%
D18*
X6388100Y6777245D02*
G01*
X6388100Y6668279D01*
X6388100Y6777245D02*
G01*
X6434836Y6777245D01*
X6450329Y6772165D01*
X6455663Y6766831D01*
X6460743Y6756417D01*
X6460743Y6740923D01*
X6455663Y6730509D01*
X6450329Y6725429D01*
X6434836Y6720095D01*
X6388100Y6720095D01*
X6495034Y6756417D02*
G01*
X6505447Y6761751D01*
X6521195Y6777245D01*
X6521195Y6668279D01*
D11*
X5791200Y6171201D02*
G01*
X5814313Y6074173D01*
X5837427Y6171201D02*
G01*
X5814313Y6074173D01*
X5837427Y6171201D02*
G01*
X5860541Y6074173D01*
X5883656Y6171201D02*
G01*
X5860541Y6074173D01*
X5950965Y6171201D02*
G01*
X5914136Y6074173D01*
X5950965Y6171201D02*
G01*
X5988050Y6074173D01*
X5927852Y6106685D02*
G01*
X5974079Y6106685D01*
X6087618Y6148087D02*
G01*
X6083045Y6157485D01*
X6073902Y6166629D01*
X6064504Y6171201D01*
X6046215Y6171201D01*
X6036818Y6166629D01*
X6027674Y6157485D01*
X6023102Y6148087D01*
X6018529Y6134371D01*
X6018529Y6111257D01*
X6023102Y6097287D01*
X6027674Y6088143D01*
X6036818Y6078999D01*
X6046215Y6074173D01*
X6064504Y6074173D01*
X6073902Y6078999D01*
X6083045Y6088143D01*
X6087618Y6097287D01*
X6087618Y6111257D01*
X6064504Y6111257D02*
G01*
X6087618Y6111257D01*
X6145784Y6171201D02*
G01*
X6136640Y6166629D01*
X6127495Y6157485D01*
X6122670Y6148087D01*
X6118097Y6134371D01*
X6118097Y6111257D01*
X6122670Y6097287D01*
X6127495Y6088143D01*
X6136640Y6078999D01*
X6145784Y6074173D01*
X6164325Y6074173D01*
X6173470Y6078999D01*
X6182868Y6088143D01*
X6187440Y6097287D01*
X6192011Y6111257D01*
X6192011Y6134371D01*
X6187440Y6148087D01*
X6182868Y6157485D01*
X6173470Y6166629D01*
X6164325Y6171201D01*
X6145784Y6171201D01*
X6298184Y6148087D02*
G01*
X6298184Y6152659D01*
X6303009Y6162057D01*
X6307581Y6166629D01*
X6316725Y6171201D01*
X6335268Y6171201D01*
X6344411Y6166629D01*
X6348984Y6162057D01*
X6353809Y6152659D01*
X6353809Y6143515D01*
X6348984Y6134371D01*
X6339840Y6120401D01*
X6293611Y6074173D01*
X6358381Y6074173D01*
X6416547Y6171201D02*
G01*
X6402577Y6166629D01*
X6393434Y6152659D01*
X6388861Y6129799D01*
X6388861Y6115829D01*
X6393434Y6092715D01*
X6402577Y6078999D01*
X6416547Y6074173D01*
X6425691Y6074173D01*
X6439661Y6078999D01*
X6448806Y6092715D01*
X6453377Y6115829D01*
X6453377Y6129799D01*
X6448806Y6152659D01*
X6439661Y6166629D01*
X6425691Y6171201D01*
X6416547Y6171201D01*
X6544056Y6138943D02*
G01*
X6539229Y6124973D01*
X6530086Y6115829D01*
X6516370Y6111257D01*
X6511543Y6111257D01*
X6497827Y6115829D01*
X6488429Y6124973D01*
X6483858Y6138943D01*
X6483858Y6143515D01*
X6488429Y6157485D01*
X6497827Y6166629D01*
X6511543Y6171201D01*
X6516370Y6171201D01*
X6530086Y6166629D01*
X6539229Y6157485D01*
X6544056Y6138943D01*
X6544056Y6115829D01*
X6539229Y6092715D01*
X6530086Y6078999D01*
X6516370Y6074173D01*
X6506972Y6074173D01*
X6493256Y6078999D01*
X6488429Y6088143D01*
X6574536Y6152659D02*
G01*
X6583679Y6157485D01*
X6597650Y6171201D01*
X6597650Y6074173D01*
X6628129Y6115829D02*
G01*
X6711188Y6115829D01*
X6741668Y6152659D02*
G01*
X6750811Y6157485D01*
X6764781Y6171201D01*
X6764781Y6074173D01*
X6795261Y6152659D02*
G01*
X6804406Y6157485D01*
X6818375Y6171201D01*
X6818375Y6074173D01*
X6904227Y6171201D02*
G01*
X6858000Y6171201D01*
X6853427Y6129799D01*
X6858000Y6134371D01*
X6871970Y6138943D01*
X6885686Y6138943D01*
X6899656Y6134371D01*
X6908800Y6124973D01*
X6913372Y6111257D01*
X6913372Y6101859D01*
X6908800Y6088143D01*
X6899656Y6078999D01*
X6885686Y6074173D01*
X6871970Y6074173D01*
X6858000Y6078999D01*
X6853427Y6083571D01*
X6848856Y6092715D01*
X6990079Y6171201D02*
G01*
X6943852Y6106685D01*
X7013193Y6106685D01*
X6990079Y6171201D02*
G01*
X6990079Y6074173D01*
D18*
X5016474Y6071641D02*
G01*
X5016474Y5962675D01*
X5016474Y6071641D02*
G01*
X5063210Y6071641D01*
X5078704Y6066561D01*
X5084038Y6061227D01*
X5089118Y6050813D01*
X5089118Y6040399D01*
X5084038Y6029985D01*
X5078704Y6024905D01*
X5063210Y6019825D01*
X5016474Y6019825D01*
X5052796Y6019825D02*
G01*
X5089118Y5962675D01*
X5123408Y6050813D02*
G01*
X5133822Y6056147D01*
X5149570Y6071641D01*
X5149570Y5962675D01*
X5029200Y6808215D02*
G01*
X5029200Y6730237D01*
X5034279Y6714744D01*
X5044693Y6704329D01*
X5060441Y6699250D01*
X5070856Y6699250D01*
X5086350Y6704329D01*
X5096763Y6714744D01*
X5101843Y6730237D01*
X5101843Y6808215D01*
X5136134Y6787387D02*
G01*
X5146547Y6792721D01*
X5162295Y6808215D01*
X5162295Y6699250D01*
X4669281Y6282949D02*
G01*
X4591304Y6282949D01*
X4575809Y6277869D01*
X4565395Y6267455D01*
X4560315Y6251707D01*
X4560315Y6241293D01*
X4565395Y6225799D01*
X4575809Y6215385D01*
X4591304Y6210305D01*
X4669281Y6210305D01*
X4643374Y6170681D02*
G01*
X4648454Y6170681D01*
X4658868Y6165601D01*
X4664202Y6160267D01*
X4669281Y6149853D01*
X4669281Y6129279D01*
X4664202Y6118865D01*
X4658868Y6113531D01*
X4648454Y6108451D01*
X4638040Y6108451D01*
X4627625Y6113531D01*
X4612131Y6123945D01*
X4560315Y6176015D01*
X4560315Y6103117D01*
D11*
X1965446Y7137394D02*
G01*
X1915408Y7137394D01*
X1942840Y7173716D01*
X1929124Y7173716D01*
X1919980Y7178288D01*
X1915408Y7182860D01*
X1910836Y7196576D01*
X1910836Y7205720D01*
X1915408Y7219182D01*
X1924552Y7228326D01*
X1938268Y7232898D01*
X1951984Y7232898D01*
X1965446Y7228326D01*
X1970018Y7223754D01*
X1974590Y7214610D01*
X1880864Y7137394D02*
G01*
X1844542Y7232898D01*
X1808220Y7137394D02*
G01*
X1844542Y7232898D01*
X1769104Y7137394D02*
G01*
X1719066Y7137394D01*
X1746498Y7173716D01*
X1732782Y7173716D01*
X1723638Y7178288D01*
X1719066Y7182860D01*
X1714494Y7196576D01*
X1714494Y7205720D01*
X1719066Y7219182D01*
X1728210Y7228326D01*
X1741926Y7232898D01*
X1755388Y7232898D01*
X1769104Y7228326D01*
X1773676Y7223754D01*
X1778248Y7214610D01*
X2201920Y7137394D02*
G01*
X2201920Y7232898D01*
X2201920Y7137394D02*
G01*
X2170170Y7137394D01*
X2156454Y7141966D01*
X2147310Y7151110D01*
X2142738Y7160254D01*
X2138166Y7173716D01*
X2138166Y7196576D01*
X2142738Y7210292D01*
X2147310Y7219182D01*
X2156454Y7228326D01*
X2170170Y7232898D01*
X2201920Y7232898D01*
X2085588Y7137394D02*
G01*
X2099304Y7141966D01*
X2103622Y7151110D01*
X2103622Y7160254D01*
X2099304Y7169398D01*
X2090160Y7173716D01*
X2071872Y7178288D01*
X2058410Y7182860D01*
X2049266Y7192004D01*
X2044694Y7201148D01*
X2044694Y7214610D01*
X2049266Y7223754D01*
X2053838Y7228326D01*
X2067300Y7232898D01*
X2085588Y7232898D01*
X2099304Y7228326D01*
X2103622Y7223754D01*
X2108194Y7214610D01*
X2108194Y7201148D01*
X2103622Y7192004D01*
X2094732Y7182860D01*
X2081016Y7178288D01*
X2062728Y7173716D01*
X2053838Y7169398D01*
X2049266Y7160254D01*
X2049266Y7151110D01*
X2053838Y7141966D01*
X2067300Y7137394D01*
X2085588Y7137394D01*
X2430520Y7137394D02*
G01*
X2430520Y7232898D01*
X2430520Y7137394D02*
G01*
X2398770Y7137394D01*
X2385054Y7141966D01*
X2375910Y7151110D01*
X2371338Y7160254D01*
X2366766Y7173716D01*
X2366766Y7196576D01*
X2371338Y7210292D01*
X2375910Y7219182D01*
X2385054Y7228326D01*
X2398770Y7232898D01*
X2430520Y7232898D01*
X2273294Y7137394D02*
G01*
X2318760Y7232898D01*
X2336794Y7137394D02*
G01*
X2273294Y7137394D01*
X2705092Y7133587D02*
G01*
X2705092Y7229091D01*
X2705092Y7133587D02*
G01*
X2673342Y7133587D01*
X2659626Y7138159D01*
X2650482Y7147303D01*
X2645910Y7156447D01*
X2641338Y7169909D01*
X2641338Y7192769D01*
X2645910Y7206485D01*
X2650482Y7215375D01*
X2659626Y7224519D01*
X2673342Y7229091D01*
X2705092Y7229091D01*
X2557010Y7147303D02*
G01*
X2561582Y7138159D01*
X2575044Y7133587D01*
X2584188Y7133587D01*
X2597904Y7138159D01*
X2606794Y7151875D01*
X2611366Y7174481D01*
X2611366Y7197341D01*
X2606794Y7215375D01*
X2597904Y7224519D01*
X2584188Y7229091D01*
X2579616Y7229091D01*
X2565900Y7224519D01*
X2557010Y7215375D01*
X2552438Y7201913D01*
X2552438Y7197341D01*
X2557010Y7183625D01*
X2565900Y7174481D01*
X2579616Y7169909D01*
X2584188Y7169909D01*
X2597904Y7174481D01*
X2606794Y7183625D01*
X2611366Y7197341D01*
X2959089Y7133589D02*
G01*
X2959089Y7229094D01*
X2959089Y7133589D02*
G01*
X2927339Y7133589D01*
X2913623Y7138162D01*
X2904479Y7147305D01*
X2899907Y7156450D01*
X2895335Y7169912D01*
X2895335Y7192771D01*
X2899907Y7206487D01*
X2904479Y7215378D01*
X2913623Y7224521D01*
X2927339Y7229094D01*
X2959089Y7229094D01*
X2811007Y7133589D02*
G01*
X2856473Y7133589D01*
X2860791Y7174484D01*
X2856473Y7169912D01*
X2842757Y7165594D01*
X2829041Y7165594D01*
X2815579Y7169912D01*
X2806435Y7179055D01*
X2801863Y7192771D01*
X2801863Y7201915D01*
X2806435Y7215378D01*
X2815579Y7224521D01*
X2829041Y7229094D01*
X2842757Y7229094D01*
X2856473Y7224521D01*
X2860791Y7219950D01*
X2865363Y7210805D01*
X3213089Y7133589D02*
G01*
X3213089Y7229094D01*
X3213089Y7133589D02*
G01*
X3181339Y7133589D01*
X3167623Y7138162D01*
X3158479Y7147305D01*
X3153907Y7156450D01*
X3149335Y7169912D01*
X3149335Y7192771D01*
X3153907Y7206487D01*
X3158479Y7215378D01*
X3167623Y7224521D01*
X3181339Y7229094D01*
X3213089Y7229094D01*
X3092185Y7133589D02*
G01*
X3105901Y7138162D01*
X3114791Y7151878D01*
X3119363Y7174484D01*
X3119363Y7188200D01*
X3114791Y7210805D01*
X3105901Y7224521D01*
X3092185Y7229094D01*
X3083041Y7229094D01*
X3069579Y7224521D01*
X3060435Y7210805D01*
X3055863Y7188200D01*
X3055863Y7174484D01*
X3060435Y7151878D01*
X3069579Y7138162D01*
X3083041Y7133589D01*
X3092185Y7133589D01*
X3430767Y7133589D02*
G01*
X3467089Y7229094D01*
X3430767Y7133589D02*
G01*
X3394445Y7229094D01*
X3453373Y7197344D02*
G01*
X3407907Y7197344D01*
X3337041Y7133589D02*
G01*
X3350757Y7138162D01*
X3359901Y7151878D01*
X3364473Y7174484D01*
X3364473Y7188200D01*
X3359901Y7210805D01*
X3350757Y7224521D01*
X3337041Y7229094D01*
X3327897Y7229094D01*
X3314435Y7224521D01*
X3305291Y7210805D01*
X3300719Y7188200D01*
X3300719Y7174484D01*
X3305291Y7151878D01*
X3314435Y7138162D01*
X3327897Y7133589D01*
X3337041Y7133589D01*
X3768844Y7137392D02*
G01*
X3768844Y7232896D01*
X3768844Y7137392D02*
G01*
X3727950Y7137392D01*
X3714234Y7141964D01*
X3709662Y7146536D01*
X3705090Y7155680D01*
X3705090Y7164824D01*
X3709662Y7173714D01*
X3714234Y7178286D01*
X3727950Y7182858D01*
X3768844Y7182858D01*
X3737094Y7182858D02*
G01*
X3705090Y7232896D01*
X3611618Y7151108D02*
G01*
X3620762Y7141964D01*
X3634224Y7137392D01*
X3652512Y7137392D01*
X3666228Y7141964D01*
X3675118Y7151108D01*
X3675118Y7160252D01*
X3670546Y7169396D01*
X3666228Y7173714D01*
X3657084Y7178286D01*
X3629652Y7187430D01*
X3620762Y7192002D01*
X3616190Y7196574D01*
X3611618Y7205718D01*
X3611618Y7219180D01*
X3620762Y7228324D01*
X3634224Y7232896D01*
X3652512Y7232896D01*
X3666228Y7228324D01*
X3675118Y7219180D01*
X3549642Y7137392D02*
G01*
X3549642Y7232896D01*
X3581646Y7137392D02*
G01*
X3517892Y7137392D01*
X3575044Y5388604D02*
G01*
X3575044Y5293100D01*
X3543294Y5388604D02*
G01*
X3607048Y5388604D01*
X3637020Y5388604D02*
G01*
X3700520Y5293100D01*
X3700520Y5388604D02*
G01*
X3637020Y5293100D01*
X3289294Y5388604D02*
G01*
X3289294Y5293100D01*
X3289294Y5388604D02*
G01*
X3330188Y5388604D01*
X3343904Y5384032D01*
X3348476Y5379460D01*
X3353048Y5370316D01*
X3353048Y5361172D01*
X3348476Y5352282D01*
X3343904Y5347710D01*
X3330188Y5343138D01*
X3289294Y5343138D01*
X3321044Y5343138D02*
G01*
X3353048Y5293100D01*
X3383020Y5388604D02*
G01*
X3446520Y5293100D01*
X3446520Y5388604D02*
G01*
X3383020Y5293100D01*
X3035297Y5388607D02*
G01*
X3035297Y5293103D01*
X3035297Y5388607D02*
G01*
X3067047Y5388607D01*
X3080763Y5384035D01*
X3089907Y5374891D01*
X3094479Y5365747D01*
X3099051Y5352285D01*
X3099051Y5329425D01*
X3094479Y5315709D01*
X3089907Y5306819D01*
X3080763Y5297675D01*
X3067047Y5293103D01*
X3035297Y5293103D01*
X3129023Y5370319D02*
G01*
X3137913Y5374891D01*
X3151629Y5388607D01*
X3151629Y5293103D01*
X2781297Y5388607D02*
G01*
X2781297Y5293103D01*
X2781297Y5388607D02*
G01*
X2813047Y5388607D01*
X2826763Y5384035D01*
X2835907Y5374891D01*
X2840479Y5365747D01*
X2845051Y5352285D01*
X2845051Y5329425D01*
X2840479Y5315709D01*
X2835907Y5306819D01*
X2826763Y5297675D01*
X2813047Y5293103D01*
X2781297Y5293103D01*
X2879595Y5365747D02*
G01*
X2879595Y5370319D01*
X2883913Y5379463D01*
X2888485Y5384035D01*
X2897629Y5388607D01*
X2915917Y5388607D01*
X2924807Y5384035D01*
X2929379Y5379463D01*
X2933951Y5370319D01*
X2933951Y5361175D01*
X2929379Y5352285D01*
X2920489Y5338569D01*
X2875023Y5293103D01*
X2938523Y5293103D01*
X2527297Y5388607D02*
G01*
X2527297Y5293103D01*
X2527297Y5388607D02*
G01*
X2559047Y5388607D01*
X2572763Y5384035D01*
X2581907Y5374891D01*
X2586479Y5365747D01*
X2591051Y5352285D01*
X2591051Y5329425D01*
X2586479Y5315709D01*
X2581907Y5306819D01*
X2572763Y5297675D01*
X2559047Y5293103D01*
X2527297Y5293103D01*
X2629913Y5388607D02*
G01*
X2679951Y5388607D01*
X2652773Y5352285D01*
X2666489Y5352285D01*
X2675379Y5347713D01*
X2679951Y5343141D01*
X2684523Y5329425D01*
X2684523Y5320281D01*
X2679951Y5306819D01*
X2670807Y5297675D01*
X2657345Y5293103D01*
X2643629Y5293103D01*
X2629913Y5297675D01*
X2625595Y5302247D01*
X2621023Y5311391D01*
X2273297Y5388607D02*
G01*
X2273297Y5293103D01*
X2273297Y5388607D02*
G01*
X2305047Y5388607D01*
X2318763Y5384035D01*
X2327907Y5374891D01*
X2332479Y5365747D01*
X2337051Y5352285D01*
X2337051Y5329425D01*
X2332479Y5315709D01*
X2327907Y5306819D01*
X2318763Y5297675D01*
X2305047Y5293103D01*
X2273297Y5293103D01*
X2412489Y5388607D02*
G01*
X2367023Y5324853D01*
X2435095Y5324853D01*
X2412489Y5388607D02*
G01*
X2412489Y5293103D01*
X1845307Y5388607D02*
G01*
X1799841Y5388607D01*
X1795269Y5347713D01*
X1799841Y5352285D01*
X1813303Y5356603D01*
X1827019Y5356603D01*
X1840735Y5352285D01*
X1849879Y5343141D01*
X1854451Y5329425D01*
X1854451Y5320281D01*
X1849879Y5306819D01*
X1840735Y5297675D01*
X1827019Y5293103D01*
X1813303Y5293103D01*
X1799841Y5297675D01*
X1795269Y5302247D01*
X1790697Y5311391D01*
X1884423Y5388607D02*
G01*
X1920745Y5293103D01*
X1957067Y5388607D02*
G01*
X1920745Y5293103D01*
X2138423Y5381241D02*
G01*
X2133851Y5390385D01*
X2124707Y5399529D01*
X2115563Y5404101D01*
X2097529Y5404101D01*
X2088385Y5399529D01*
X2079241Y5390385D01*
X2074669Y5381241D01*
X2070097Y5367779D01*
X2070097Y5344919D01*
X2074669Y5331457D01*
X2079241Y5322313D01*
X2088385Y5313169D01*
X2097529Y5308597D01*
X2115563Y5308597D01*
X2124707Y5313169D01*
X2133851Y5322313D01*
X2138423Y5331457D01*
X2138423Y5344919D01*
X2115563Y5344919D02*
G01*
X2138423Y5344919D01*
D10*
X7100798Y6504200D02*
G01*
X7100801Y5474200D01*
X7100801Y5474200D01*
X5700798Y5474200D01*
X5700798Y5474197D02*
G01*
X5700798Y6504200D01*
X5700798Y6504200D01*
X7100801Y6504200D01*
X7100801Y6504200D01*
X7100801Y6614200D01*
X5700798Y6614200D01*
X5700798Y6504200D01*
X5700798Y5576958D02*
G01*
X7100801Y5576958D01*
D16*
X5097373Y5700420D02*
G01*
X5229377Y5700420D01*
X5229377Y5907430D01*
X5097373Y5907430D01*
X4984165Y5700420D02*
G01*
X4852161Y5700420D01*
X4852161Y5907430D01*
X4984165Y5907430D01*
D10*
X5109209Y6531330D02*
G01*
X5175199Y6531330D01*
X5109209Y6531330D01*
X5175199Y6531330D01*
X5175199Y6449821D01*
X4883200Y6449821D02*
G01*
X4883200Y6531330D01*
X4949190Y6531330D01*
D17*
X4999202Y6376339D02*
G01*
X5059197Y6376339D01*
D10*
X3771491Y5252796D02*
G01*
X3771496Y5008803D01*
X1689496Y7538788D02*
G01*
X3771491Y7538788D01*
X1028700Y4978400D02*
G01*
X1028700Y7378395D01*
X1628701Y7378395D01*
X1678688Y7578341D01*
X4328665Y7578341D01*
X4528565Y7378445D01*
X4528565Y5178300D01*
X4328665Y4978400D01*
X1028700Y4978400D01*
X1689496Y5252796D02*
G01*
X3771491Y5252796D01*
X3771491Y7538788D02*
G01*
X3771496Y7294798D01*
X1689503Y7294798D02*
G01*
X1689496Y7538788D01*
X3771491Y7294798D02*
G01*
X1689496Y7294798D01*
X1689503Y5008803D02*
G01*
X1689496Y5252796D01*
X3771491Y5008803D02*
G01*
X1689496Y5008803D01*
M02*
