G04 Layer: TopLayer*
G04 EasyEDA v6.4.21, 2021-08-27T17:56:30+02:00*
G04 e7cb7ce6d9f94255a7045453de3fad17,10*
G04 Gerber Generator version 0.2*
G04 Scale: 100 percent, Rotated: No, Reflected: No *
G04 Dimensions in millimeters *
G04 leading zeros omitted , absolute positions ,4 integer and 5 decimal *
%FSLAX45Y45*%
%MOMM*%

%ADD10C,0.2540*%
%ADD11C,0.2032*%
%ADD13R,0.7000X1.2500*%
%ADD14C,1.7000*%
%ADD15C,1.8000*%

%LPD*%
D11*
X5843524Y4788154D02*
G01*
X5834634Y4779010D01*
X5830061Y4765294D01*
X5830061Y4747005D01*
X5834634Y4733544D01*
X5843524Y4724400D01*
X5852668Y4724400D01*
X5861811Y4728971D01*
X5866384Y4733544D01*
X5870956Y4742687D01*
X5880100Y4769865D01*
X5884418Y4779010D01*
X5888990Y4783581D01*
X5898134Y4788154D01*
X5911850Y4788154D01*
X5920993Y4779010D01*
X5925565Y4765294D01*
X5925565Y4747005D01*
X5920993Y4733544D01*
X5911850Y4724400D01*
X5861811Y4818126D02*
G01*
X5957315Y4818126D01*
X5875527Y4818126D02*
G01*
X5866384Y4827015D01*
X5861811Y4836160D01*
X5861811Y4849876D01*
X5866384Y4859020D01*
X5875527Y4867910D01*
X5888990Y4872481D01*
X5898134Y4872481D01*
X5911850Y4867910D01*
X5920993Y4859020D01*
X5925565Y4849876D01*
X5925565Y4836160D01*
X5920993Y4827015D01*
X5911850Y4818126D01*
X5861811Y4902707D02*
G01*
X5925565Y4902707D01*
X5888990Y4902707D02*
G01*
X5875527Y4907026D01*
X5866384Y4916170D01*
X5861811Y4925313D01*
X5861811Y4939029D01*
X5861811Y5023612D02*
G01*
X5925565Y5023612D01*
X5875527Y5023612D02*
G01*
X5866384Y5014468D01*
X5861811Y5005323D01*
X5861811Y4991607D01*
X5866384Y4982463D01*
X5875527Y4973573D01*
X5888990Y4969002D01*
X5898134Y4969002D01*
X5911850Y4973573D01*
X5920993Y4982463D01*
X5925565Y4991607D01*
X5925565Y5005323D01*
X5920993Y5014468D01*
X5911850Y5023612D01*
X5861811Y5058155D02*
G01*
X5925565Y5085334D01*
X5861811Y5112512D02*
G01*
X5925565Y5085334D01*
X5943600Y5076189D01*
X5952743Y5067045D01*
X5957315Y5058155D01*
X5957315Y5053584D01*
X5884418Y5212587D02*
G01*
X5884418Y5294376D01*
X6186424Y4800854D02*
G01*
X6177534Y4791710D01*
X6172961Y4777994D01*
X6172961Y4759705D01*
X6177534Y4746244D01*
X6186424Y4737100D01*
X6195568Y4737100D01*
X6204711Y4741671D01*
X6209284Y4746244D01*
X6213856Y4755387D01*
X6223000Y4782565D01*
X6227318Y4791710D01*
X6231890Y4796281D01*
X6241034Y4800854D01*
X6254750Y4800854D01*
X6263893Y4791710D01*
X6268465Y4777994D01*
X6268465Y4759705D01*
X6263893Y4746244D01*
X6254750Y4737100D01*
X6204711Y4830826D02*
G01*
X6300215Y4830826D01*
X6218427Y4830826D02*
G01*
X6209284Y4839715D01*
X6204711Y4848860D01*
X6204711Y4862576D01*
X6209284Y4871720D01*
X6218427Y4880610D01*
X6231890Y4885181D01*
X6241034Y4885181D01*
X6254750Y4880610D01*
X6263893Y4871720D01*
X6268465Y4862576D01*
X6268465Y4848860D01*
X6263893Y4839715D01*
X6254750Y4830826D01*
X6204711Y4915407D02*
G01*
X6268465Y4915407D01*
X6231890Y4915407D02*
G01*
X6218427Y4919726D01*
X6209284Y4928870D01*
X6204711Y4938013D01*
X6204711Y4951729D01*
X6204711Y5036312D02*
G01*
X6268465Y5036312D01*
X6218427Y5036312D02*
G01*
X6209284Y5027168D01*
X6204711Y5018023D01*
X6204711Y5004307D01*
X6209284Y4995163D01*
X6218427Y4986273D01*
X6231890Y4981702D01*
X6241034Y4981702D01*
X6254750Y4986273D01*
X6263893Y4995163D01*
X6268465Y5004307D01*
X6268465Y5018023D01*
X6263893Y5027168D01*
X6254750Y5036312D01*
X6204711Y5070855D02*
G01*
X6268465Y5098034D01*
X6204711Y5125212D02*
G01*
X6268465Y5098034D01*
X6286500Y5088889D01*
X6295643Y5079745D01*
X6300215Y5070855D01*
X6300215Y5066284D01*
X6186424Y5266181D02*
G01*
X6268465Y5266181D01*
X6227318Y5225287D02*
G01*
X6227318Y5307076D01*
X6515861Y4673600D02*
G01*
X6611365Y4673600D01*
X6515861Y4673600D02*
G01*
X6515861Y4714494D01*
X6520434Y4728210D01*
X6525006Y4732781D01*
X6533895Y4737354D01*
X6543040Y4737354D01*
X6552184Y4732781D01*
X6556756Y4728210D01*
X6561327Y4714494D01*
X6561327Y4673600D02*
G01*
X6561327Y4714494D01*
X6565900Y4728210D01*
X6570218Y4732781D01*
X6579361Y4737354D01*
X6593077Y4737354D01*
X6602222Y4732781D01*
X6606793Y4728210D01*
X6611365Y4714494D01*
X6611365Y4673600D01*
X6547611Y4767326D02*
G01*
X6593077Y4767326D01*
X6606793Y4771897D01*
X6611365Y4780787D01*
X6611365Y4794504D01*
X6606793Y4803647D01*
X6593077Y4817110D01*
X6547611Y4817110D02*
G01*
X6611365Y4817110D01*
X6515861Y4860797D02*
G01*
X6593077Y4860797D01*
X6606793Y4865370D01*
X6611365Y4874513D01*
X6611365Y4883657D01*
X6547611Y4847336D02*
G01*
X6547611Y4879086D01*
X6515861Y4927345D02*
G01*
X6593077Y4927345D01*
X6606793Y4931663D01*
X6611365Y4940807D01*
X6611365Y4949952D01*
X6547611Y4913629D02*
G01*
X6547611Y4945379D01*
X6547611Y5002784D02*
G01*
X6552184Y4993639D01*
X6561327Y4984495D01*
X6574790Y4979923D01*
X6583934Y4979923D01*
X6597650Y4984495D01*
X6606793Y4993639D01*
X6611365Y5002784D01*
X6611365Y5016245D01*
X6606793Y5025389D01*
X6597650Y5034534D01*
X6583934Y5039105D01*
X6574790Y5039105D01*
X6561327Y5034534D01*
X6552184Y5025389D01*
X6547611Y5016245D01*
X6547611Y5002784D01*
X6547611Y5069078D02*
G01*
X6611365Y5069078D01*
X6565900Y5069078D02*
G01*
X6552184Y5082794D01*
X6547611Y5091684D01*
X6547611Y5105400D01*
X6552184Y5114544D01*
X6565900Y5119115D01*
X6611365Y5119115D01*
X6570218Y5218937D02*
G01*
X6570218Y5300979D01*
X6884161Y4673600D02*
G01*
X6979665Y4673600D01*
X6884161Y4673600D02*
G01*
X6884161Y4714494D01*
X6888734Y4728210D01*
X6893306Y4732781D01*
X6902195Y4737354D01*
X6911340Y4737354D01*
X6920484Y4732781D01*
X6925056Y4728210D01*
X6929627Y4714494D01*
X6929627Y4673600D02*
G01*
X6929627Y4714494D01*
X6934200Y4728210D01*
X6938518Y4732781D01*
X6947661Y4737354D01*
X6961377Y4737354D01*
X6970522Y4732781D01*
X6975093Y4728210D01*
X6979665Y4714494D01*
X6979665Y4673600D01*
X6915911Y4767326D02*
G01*
X6961377Y4767326D01*
X6975093Y4771897D01*
X6979665Y4780787D01*
X6979665Y4794504D01*
X6975093Y4803647D01*
X6961377Y4817110D01*
X6915911Y4817110D02*
G01*
X6979665Y4817110D01*
X6884161Y4860797D02*
G01*
X6961377Y4860797D01*
X6975093Y4865370D01*
X6979665Y4874513D01*
X6979665Y4883657D01*
X6915911Y4847336D02*
G01*
X6915911Y4879086D01*
X6884161Y4927345D02*
G01*
X6961377Y4927345D01*
X6975093Y4931663D01*
X6979665Y4940807D01*
X6979665Y4949952D01*
X6915911Y4913629D02*
G01*
X6915911Y4945379D01*
X6915911Y5002784D02*
G01*
X6920484Y4993639D01*
X6929627Y4984495D01*
X6943090Y4979923D01*
X6952234Y4979923D01*
X6965950Y4984495D01*
X6975093Y4993639D01*
X6979665Y5002784D01*
X6979665Y5016245D01*
X6975093Y5025389D01*
X6965950Y5034534D01*
X6952234Y5039105D01*
X6943090Y5039105D01*
X6929627Y5034534D01*
X6920484Y5025389D01*
X6915911Y5016245D01*
X6915911Y5002784D01*
X6915911Y5069078D02*
G01*
X6979665Y5069078D01*
X6934200Y5069078D02*
G01*
X6920484Y5082794D01*
X6915911Y5091684D01*
X6915911Y5105400D01*
X6920484Y5114544D01*
X6934200Y5119115D01*
X6979665Y5119115D01*
X6897624Y5260086D02*
G01*
X6979665Y5260086D01*
X6938518Y5218937D02*
G01*
X6938518Y5300979D01*
D10*
X2857502Y7416817D02*
G01*
X3842336Y6431983D01*
X4934206Y6431983D01*
X4934206Y6386669D02*
G01*
X4934206Y6431983D01*
X4934206Y6386669D02*
G01*
X4979520Y6431983D01*
X5124198Y6431983D01*
X5124198Y6341356D02*
G01*
X5124198Y6431983D01*
X4934206Y6364013D02*
G01*
X4934206Y6386669D01*
X4934206Y6364013D02*
G01*
X4934206Y6341356D01*
X4934206Y6341356D02*
G01*
X4934206Y5910597D01*
X4940302Y5904501D01*
X4940302Y5803892D02*
G01*
X4940302Y5904501D01*
X6925795Y5664192D02*
G01*
X5051579Y7538407D01*
X2725092Y7538407D01*
X2603502Y7416817D01*
X2095502Y5130817D02*
G01*
X2433043Y5468358D01*
X6379974Y5468358D01*
X6575808Y5664192D01*
X6575808Y5664192D02*
G01*
X6462676Y5777323D01*
X6177688Y5777323D01*
X5950460Y5550095D01*
X5483430Y5550095D01*
X5229633Y5803892D01*
X5143502Y5803892D02*
G01*
X5229633Y5803892D01*
X1841502Y5130817D02*
G01*
X2219911Y5509226D01*
X6070831Y5509226D01*
X6225796Y5664192D01*
X5029202Y6500665D02*
G01*
X5119829Y6500665D01*
X5875809Y5744684D01*
X5875809Y5664192D01*
X5029202Y6591292D02*
G01*
X5029202Y6500665D01*
G36*
X4882299Y5876399D02*
G01*
X4998300Y5876399D01*
X4998300Y5731400D01*
X4882299Y5731400D01*
G37*
G36*
X5085499Y5876399D02*
G01*
X5201500Y5876399D01*
X5201500Y5731400D01*
X5085499Y5731400D01*
G37*
D13*
G01*
X5029200Y6591300D03*
G01*
X5124195Y6341363D03*
G01*
X4934204Y6341363D03*
D14*
G01*
X5875807Y5664192D03*
G01*
X6225793Y5664192D03*
G01*
X6575806Y5664192D03*
G01*
X6925792Y5664192D03*
D15*
G01*
X3619500Y7416805D03*
G01*
X3365500Y7416805D03*
G01*
X3111500Y7416805D03*
G01*
X2857500Y7416805D03*
G01*
X2603500Y7416805D03*
G01*
X2349500Y7416805D03*
G01*
X2095500Y7416805D03*
G01*
X1841500Y7416805D03*
G01*
X3619500Y5130805D03*
G01*
X3365500Y5130805D03*
G01*
X3111500Y5130805D03*
G01*
X2857500Y5130805D03*
G01*
X2603500Y5130805D03*
G01*
X2349500Y5130805D03*
G01*
X2095500Y5130805D03*
G01*
X1841500Y5130805D03*
M02*
